# xmcd CD database file
#
# Track frame offsets:
#	150
#	14157
#	27220
#	44200
#	59075
#	73212
#	89230
#	101490
#	119132
#	135675
#	153325
#	170967
#	188302
#	204260
#
# Disc length: 2893 seconds
#
# Revision: 0
# Processed by: cddbd v1.5.2PL0 Copyright (c) Steve Scherf et al.
# Submitted via: CDex 1.70beta2
#
DISCID=db0b4b0e
DTITLE=John Brach-Div - A JOHN BRACK COUNTRY TIME
DYEAR=1996
DGENRE=Country
TTITLE0=I Don´t Mind - John Brack
TTITLE1=Wake Me Up - Val and Bird
TTITLE2=Rompin´ Stompin Bad News Blues - Britta T.
TTITLE3=What About You - Joyce ´n´Webber
TTITLE4=As Long as I Had You - Buddy Dee
TTITLE5=Every Time Folls Collide - Rebecca Holden and John Brach
TTITLE6=Point of No Return - Billy Troy
TTITLE7=Midnight Special - Joyce ´n´Webber 
TTITLE8=A Rainbow of Our Own - Britta T. and John Brack
TTITLE9=Do You Remember - Rolf Ragenbass
TTITLE10=Take A Walk - Val and Bird
TTITLE11=This Rock - Rebecca Holden
TTITLE12=One More Reason To Hate California - Jan Hiermeyer
TTITLE13=Cruisin´Down the Highway Feelin´/ John Brack
EXTD=YEAR: 1996
EXTT0=
EXTT1=
EXTT2=
EXTT3=
EXTT4=
EXTT5=
EXTT6=
EXTT7=
EXTT8=
EXTT9=
EXTT10=
EXTT11=
EXTT12=
EXTT13=
PLAYORDER=
